<svg xmlns="http://www.w3.org/2000/svg" width="100%" height="100%" viewBox="0 0 60 24" fill="none"><path d="M17.3515 0L11.8854 2.1609L6.41929 0L0 2.53822V21.4628L6.41929 24.001L11.8854 21.8401L17.3515 24.001L23.7708 21.4628V2.53822L17.3515 0ZM17.3515 1.03184L22.8176 3.19274V11.0018L17.3515 8.84192V1.03184ZM17.3515 9.87471L22.7307 12.001L17.3515 14.1272L11.9723 12.001L17.3515 9.87471ZM6.41929 1.03184L11.8854 3.19274V11.0018L6.41929 8.84192V1.03184ZM6.41929 9.87471L11.7975 12.001L6.41835 14.1272L1.04011 12.001L6.41929 9.87471ZM0.953201 20.8073V12.9982L6.41929 15.1581V22.9682L0.953201 20.8073ZM11.8854 20.8073V12.9982L17.3515 15.1581V22.9682L11.8854 20.8073Z" fill="currentColor"/><path d="M36.2073 18.064L34.7985 13.5574H33.408L31.9971 18.0669L30.6247 13.1396H29.2256L31.1356 20.3693H32.4766L34.1013 15.6374L35.7459 20.3693H37.068L38.9781 13.1396H37.5797L36.2073 18.064Z" fill="currentColor"/><path d="M50.1338 20.3799H51.4986V19.4712V13.1396H50.1338V20.3799Z" fill="currentColor"/><path d="M41.8206 14.8848C40.2904 14.8848 39.0498 16.1351 39.0498 17.6771C39.0498 19.2191 40.2904 20.4694 41.8206 20.4694C43.3504 20.4694 44.5913 19.2191 44.5913 17.6771C44.5913 16.1351 43.3504 14.8848 41.8206 14.8848ZM41.8206 19.2431C40.9638 19.2431 40.2666 18.5405 40.2666 17.6771C40.2666 16.8137 40.9638 16.111 41.8206 16.111C42.6773 16.111 43.3745 16.8137 43.3745 17.6771C43.3745 18.5405 42.6773 19.2431 41.8206 19.2431Z" fill="currentColor"/><path d="M56.8978 13.1396V15.3881C56.449 15.0724 55.9035 14.8857 55.3142 14.8857C53.7841 14.8857 52.5435 16.136 52.5435 17.678C52.5435 19.22 53.7841 20.4704 55.3142 20.4704C55.9035 20.4704 56.449 20.2836 56.8978 19.9679V20.3856H58.2636V13.1406H56.8978V13.1396ZM55.3142 19.2431C54.4574 19.2431 53.7602 18.5405 53.7602 17.6771C53.7602 16.8137 54.4574 16.111 55.3142 16.111C56.171 16.111 56.8682 16.8137 56.8682 17.6771C56.8682 18.5405 56.171 19.2431 55.3142 19.2431Z" fill="currentColor"/><path d="M47.1385 17.906C47.1385 17.8598 47.1403 17.8444 47.1443 17.7972C47.1977 17.11 47.7241 16.5575 48.3964 16.4699C48.4087 16.467 48.4166 16.466 48.4249 16.4651C48.4842 16.4574 48.53 16.4554 48.5759 16.4564C48.5921 16.4564 48.6008 16.4574 48.6094 16.4574C48.6285 16.4574 48.6456 16.4593 48.6639 16.4603C48.7077 16.4631 48.7506 16.467 48.7936 16.4737C48.8394 16.4795 48.8711 16.4853 48.8711 16.4853V15.0059C48.7268 15.0107 48.5863 15.0261 48.4488 15.053C47.9465 15.1493 47.4948 15.3889 47.1327 15.7239V15.1858H45.7737V20.3691H47.1374V17.9474C47.1374 17.9474 47.1374 17.9079 47.1374 17.906H47.1385Z" fill="currentColor"/><path d="M42.574 10.3974V10.7978H43.7907V5.40854H42.574V5.78297C42.1299 5.47688 41.592 5.29785 41.0132 5.29785C39.4833 5.29785 38.2424 6.5482 38.2424 8.09019C38.2424 9.63217 39.4833 10.8825 41.0132 10.8825C41.592 10.8825 42.1299 10.7035 42.574 10.3974ZM39.4592 8.09019C39.4592 7.22679 40.1564 6.52412 41.0132 6.52412C41.8699 6.52412 42.5671 7.22679 42.5671 8.09019C42.5671 8.95358 41.8699 9.65622 41.0132 9.65622C40.1564 9.65622 39.4592 8.95358 39.4592 8.09019Z" fill="currentColor"/><path d="M30.6038 6.15645L32.6783 10.3656H33.6103L35.6849 6.15645V10.7843H37.0631V3.55469H35.5924L33.1445 8.28654L30.6965 3.55469H29.2256V10.7843H30.6038V6.15645Z" fill="currentColor"/><path d="M50.0944 5.40854H48.4469L46.5568 7.85628V3.55469H45.1909V10.7978H46.5568V7.9949L48.5072 10.7978H50.1547L48.1385 7.92751L50.0944 5.40854Z" fill="currentColor"/><path d="M58.2674 8.30884C58.2674 8.26263 58.2695 8.24723 58.2732 8.20008C58.3266 7.51281 58.853 6.96031 59.5253 6.87272C59.5379 6.86984 59.5455 6.86887 59.5541 6.86792C59.5588 6.86792 59.5636 6.86694 59.5693 6.86599C59.6133 6.86022 59.6592 6.85829 59.705 6.85924C59.7213 6.85924 59.7297 6.86022 59.7383 6.86022C59.7574 6.86022 59.7747 6.86214 59.7928 6.86309C59.8368 6.86599 59.8798 6.86984 59.9228 6.87657C59.9686 6.88234 60.0001 6.88812 60.0001 6.88812V5.40869C59.856 5.41352 59.7155 5.42892 59.578 5.45585C59.0754 5.55211 58.6237 5.79179 58.2619 6.12674V5.58869H56.9026V10.798H58.2666V8.35022C58.2666 8.35022 58.2666 8.31077 58.2666 8.30884H58.2674Z" fill="currentColor"/><path d="M53.1328 9.65622C52.4251 9.65622 51.8272 9.17594 51.6409 8.52237H55.8674C55.8894 8.38088 55.9035 8.23746 55.9035 8.09019C55.9035 6.5482 54.6629 5.29785 53.1328 5.29785C51.6027 5.29785 50.3621 6.5482 50.3621 8.09019C50.3621 9.63217 51.6027 10.8825 53.1328 10.8825C54.2733 10.8825 55.2522 10.1875 55.6772 9.19519H54.2332C53.9513 9.4801 53.5628 9.65622 53.1328 9.65622ZM53.1328 6.52412C53.7784 6.52412 54.3333 6.92357 54.5676 7.49053H51.6973C51.9312 6.92357 52.4862 6.52412 53.132 6.52412H53.1328Z" fill="currentColor"/></svg>
